<svg xmlns="http://www.w3.org/2000/svg" viewBox="0 0 100 100" role="img"><title>NexWave Tech — Forward Current</title><g fill="none" stroke="#0056D2" stroke-linecap="round" stroke-linejoin="round"><polyline points="15.000,68.000 16.226,67.952 17.405,67.813 18.541,67.584 19.635,67.272 20.693,66.879 21.715,66.410 22.705,65.869 23.667,65.259 24.602,64.585 25.514,63.851 26.406,63.061 27.281,62.219 28.142,61.328 28.991,60.393 29.832,59.418 30.667,58.407 31.499,57.364 32.332,56.293 33.168,55.198 34.010,54.082 34.862,52.951 35.725,51.807 36.604,50.656 37.500,49.500 38.417,48.344 39.358,47.193 40.326,46.049 41.323,44.918 42.353,43.802 43.418,42.707 44.522,41.636 45.667,40.593 46.856,39.582 48.092,38.607 49.379,37.672 50.719,36.781 52.114,35.939 53.569,35.149 55.085,34.415 56.667,33.741 58.316,33.131 60.035,32.590 61.828,32.121 63.698,31.728 65.647,31.416 67.678,31.187 69.795,31.048 72.000,31.000" stroke-width="12"/><polyline points="60.000,17.000 78.000,31.000 63.000,47.000" stroke-width="12"/><polyline points="23.000,84.000 24.478,83.969 25.914,83.878 27.310,83.730 28.667,83.528 29.987,83.273 31.273,82.969 32.527,82.618 33.750,82.222 34.944,81.785 36.112,81.309 37.255,80.796 38.375,80.250 39.474,79.672 40.555,79.066 41.618,78.434 42.667,77.778 43.702,77.101 44.727,76.406 45.742,75.696 46.750,74.972 47.753,74.238 48.753,73.497 49.751,72.750 50.750,72.000 51.752,71.250 52.758,70.503 53.771,69.762 54.792,69.028 55.823,68.304 56.867,67.594 57.925,66.899 59.000,66.222 60.093,65.566 61.206,64.934 62.341,64.328 63.500,63.750 64.685,63.204 65.898,62.691 67.142,62.215 68.417,61.778 69.726,61.382 71.070,61.031 72.453,60.727 73.875,60.472 75.339,60.270 76.846,60.122 78.399,60.031 80.000,60.000" stroke-width="10"/></g></svg>